<?xml version="1.0" encoding="UTF-8" standalone="no"?>
<!DOCTYPE svg PUBLIC "-//W3C//DTD SVG 1.1//EN"
 "http://www.w3.org/Graphics/SVG/1.1/DTD/svg11.dtd">
<!-- Generated by graphviz version 2.38.0 (20140413.2041)
 -->
<!-- Title: graph_name Pages: 1 -->
<svg width="608pt" height="653pt"
 viewBox="0.00 0.00 608.00 653.19" xmlns="http://www.w3.org/2000/svg" xmlns:xlink="http://www.w3.org/1999/xlink">
<g id="graph0" class="graph" transform="scale(1 1) rotate(0) translate(4 649.189)">
<title>graph_name</title>
<polygon fill="white" stroke="none" points="-4,4 -4,-649.189 604,-649.189 604,4 -4,4"/>
<!-- start -->
<g id="node1" class="node"><title>start</title>
<ellipse fill="lightgrey" stroke="black" cx="411.429" cy="-612" rx="33.2948" ry="33.2948"/>
<text text-anchor="middle" x="411.429" y="-608.3" font-family="Times,serif" font-size="14.00">start</text>
</g>
<!-- manual1 -->
<g id="node2" class="node"><title>manual1</title>
<polygon fill="lightgrey" stroke="black" points="364.429,-542 212.429,-542 212.429,-504 364.429,-504 364.429,-542"/>
<text text-anchor="middle" x="288.429" y="-526.8" font-family="Times,serif" font-size="14.00">manual1</text>
<text text-anchor="middle" x="288.429" y="-511.8" font-family="Times,serif" font-size="14.00">Integer input field.</text>
</g>
<!-- start&#45;&gt;manual1 -->
<g id="edge1" class="edge"><title>start&#45;&gt;manual1</title>
<path fill="none" stroke="black" d="M384.739,-592.122C366.521,-579.236 342.227,-562.052 322.596,-548.168"/>
<polygon fill="black" stroke="black" points="324.408,-545.162 314.223,-542.245 320.366,-550.877 324.408,-545.162"/>
</g>
<!-- manual2 -->
<g id="node3" class="node"><title>manual2</title>
<polygon fill="lightgrey" stroke="black" points="548.429,-486 404.429,-486 404.429,-448 548.429,-448 548.429,-486"/>
<text text-anchor="middle" x="476.429" y="-470.8" font-family="Times,serif" font-size="14.00">manual2</text>
<text text-anchor="middle" x="476.429" y="-455.8" font-family="Times,serif" font-size="14.00">String input field.</text>
</g>
<!-- start&#45;&gt;manual2 -->
<g id="edge2" class="edge"><title>start&#45;&gt;manual2</title>
<path fill="none" stroke="black" d="M424.897,-581.37C436.386,-556.093 452.776,-520.036 463.967,-495.416"/>
<polygon fill="black" stroke="black" points="467.173,-496.82 468.125,-486.268 460.801,-493.923 467.173,-496.82"/>
</g>
<!-- branch -->
<g id="node4" class="node"><title>branch</title>
<polygon fill="lightgrey" stroke="black" points="362.929,-429.5 167.929,-429.5 167.929,-376.5 362.929,-376.5 362.929,-429.5"/>
<text text-anchor="middle" x="265.429" y="-414.3" font-family="Times,serif" font-size="14.00">branch</text>
<text text-anchor="middle" x="265.429" y="-399.3" font-family="Times,serif" font-size="14.00">Is integer from previous </text>
<text text-anchor="middle" x="265.429" y="-384.3" font-family="Times,serif" font-size="14.00"> task bigger than 100?</text>
</g>
<!-- manual1&#45;&gt;branch -->
<g id="edge3" class="edge"><title>manual1&#45;&gt;branch</title>
<path fill="none" stroke="black" d="M284.885,-503.821C281.572,-486.821 276.529,-460.951 272.408,-439.807"/>
<polygon fill="black" stroke="black" points="275.819,-439.013 270.47,-429.867 268.948,-440.352 275.819,-439.013"/>
</g>
<!-- join2 -->
<g id="node7" class="node"><title>join2</title>
<polygon fill="lightgrey" stroke="black" points="491.929,-145.5 348.929,-145.5 348.929,-92.5 491.929,-92.5 491.929,-145.5"/>
<text text-anchor="middle" x="420.429" y="-130.3" font-family="Times,serif" font-size="14.00">join2</text>
<text text-anchor="middle" x="420.429" y="-115.3" font-family="Times,serif" font-size="14.00">Wait for both </text>
<text text-anchor="middle" x="420.429" y="-100.3" font-family="Times,serif" font-size="14.00"> parent branches.</text>
</g>
<!-- manual2&#45;&gt;join2 -->
<g id="edge8" class="edge"><title>manual2&#45;&gt;join2</title>
<path fill="none" stroke="black" d="M477.459,-447.842C478.644,-425.353 480.429,-385.865 480.429,-352 480.429,-352 480.429,-352 480.429,-208 480.429,-187.687 469.381,-168.604 456.766,-153.434"/>
<polygon fill="black" stroke="black" points="459.324,-151.044 450.077,-145.873 454.081,-155.682 459.324,-151.044"/>
</g>
<!-- subflow -->
<g id="node5" class="node"><title>subflow</title>
<polygon fill="lightgrey" stroke="black" points="236.429,-325.5 62.4286,-325.5 62.4286,-272.5 236.429,-272.5 236.429,-325.5"/>
<text text-anchor="middle" x="149.429" y="-310.3" font-family="Times,serif" font-size="14.00">subflow</text>
<text text-anchor="middle" x="149.429" y="-295.3" font-family="Times,serif" font-size="14.00">Execute the same </text>
<text text-anchor="middle" x="149.429" y="-280.3" font-family="Times,serif" font-size="14.00"> workflow recursively.</text>
</g>
<!-- branch&#45;&gt;subflow -->
<g id="edge4" class="edge"><title>branch&#45;&gt;subflow</title>
<path fill="none" stroke="black" d="M236.157,-376.261C221.045,-362.973 202.452,-346.624 186.362,-332.476"/>
<polygon fill="black" stroke="black" points="188.512,-329.706 178.691,-325.731 183.889,-334.962 188.512,-329.706"/>
<text text-anchor="middle" x="226.929" y="-347.3" font-family="Times,serif" font-size="14.00">Yes</text>
</g>
<!-- join1 -->
<g id="node6" class="node"><title>join1</title>
<polygon fill="lightgrey" stroke="black" points="369.429,-235.5 195.429,-235.5 195.429,-182.5 369.429,-182.5 369.429,-235.5"/>
<text text-anchor="middle" x="282.429" y="-220.3" font-family="Times,serif" font-size="14.00">join1</text>
<text text-anchor="middle" x="282.429" y="-205.3" font-family="Times,serif" font-size="14.00">Wait for any of </text>
<text text-anchor="middle" x="282.429" y="-190.3" font-family="Times,serif" font-size="14.00"> two parent branches.</text>
</g>
<!-- branch&#45;&gt;join1 -->
<g id="edge5" class="edge"><title>branch&#45;&gt;join1</title>
<path fill="none" stroke="black" d="M267.721,-376.106C270.695,-342.517 275.898,-283.752 279.252,-245.879"/>
<polygon fill="black" stroke="black" points="282.749,-246.059 280.145,-235.79 275.777,-245.442 282.749,-246.059"/>
<text text-anchor="middle" x="288.429" y="-295.3" font-family="Times,serif" font-size="14.00">No</text>
</g>
<!-- subflow&#45;&gt;join1 -->
<g id="edge6" class="edge"><title>subflow&#45;&gt;join1</title>
<path fill="none" stroke="black" d="M188.255,-272.31C203.005,-262.551 219.966,-251.329 235.394,-241.121"/>
<polygon fill="black" stroke="black" points="237.375,-244.007 243.784,-235.57 233.513,-238.169 237.375,-244.007"/>
</g>
<!-- join1&#45;&gt;join2 -->
<g id="edge7" class="edge"><title>join1&#45;&gt;join2</title>
<path fill="none" stroke="black" d="M322.715,-182.31C338.019,-172.551 355.618,-161.329 371.626,-151.121"/>
<polygon fill="black" stroke="black" points="373.781,-153.897 380.331,-145.57 370.017,-147.995 373.781,-153.897"/>
</g>
<!-- end -->
<g id="node8" class="node"><title>end</title>
<ellipse fill="lightgrey" stroke="black" cx="420.429" cy="-28" rx="27.8951" ry="27.8951"/>
<text text-anchor="middle" x="420.429" y="-24.3" font-family="Times,serif" font-size="14.00">end</text>
</g>
<!-- join2&#45;&gt;end -->
<g id="edge9" class="edge"><title>join2&#45;&gt;end</title>
<path fill="none" stroke="black" d="M420.429,-92.2575C420.429,-84.1397 420.429,-75.0025 420.429,-66.2498"/>
<polygon fill="black" stroke="black" points="423.929,-66.2357 420.429,-56.2358 416.929,-66.2358 423.929,-66.2357"/>
</g>
</g>
</svg>
